<svg version="1.1" xmlns="http://www.w3.org/2000/svg" xmlns:xlink="http://www.w3.org/1999/xlink" width="32" height="32" viewBox="0,0,255.99908,255.99908"><g fill="#ffffff" fill-rule="nonzero" stroke="none" stroke-width="1" stroke-linecap="butt" stroke-linejoin="miter" stroke-miterlimit="10" stroke-dasharray="" stroke-dashoffset="0" font-family="none" font-weight="none" font-size="none" text-anchor="none" style="mix-blend-mode: normal"><g transform="translate(-0.00046,-0.00446) scale(8,8)"><g id="icomoon-ignore" font-family="Inter, apple-system, BlinkMacSystemFont, &quot;Helvetica Neue&quot;, &quot;Segoe UI&quot;, &quot;Fira Sans&quot;, Roboto, Oxygen, Ubuntu, &quot;Droid Sans&quot;, Arial, sans-serif" font-weight="400" font-size="16" text-anchor="start"></g><path d="M16,6.404c-5.847,0 -10.404,3.66 -15.994,9.593c4.816,5.073 8.857,9.6 15.994,9.6c7.137,0 12.382,-5.73 15.994,-9.492c-3.697,-4.407 -8.943,-9.7 -15.994,-9.7zM16,24.53c-6.336,0 -10.16,-3.929 -14.524,-8.532c5.192,-5.414 9.32,-8.527 14.524,-8.527c6.161,0 10.975,4.443 14.558,8.591c-3.523,3.674 -8.293,8.469 -14.558,8.469z"></path><path d="M16,9.603c-3.528,0 -6.398,2.87 -6.398,6.397c0,3.527 2.87,6.397 6.398,6.397c3.528,0 6.398,-2.87 6.398,-6.397c0,-3.527 -2.87,-6.397 -6.398,-6.397zM16,21.331c-2.939,0 -5.331,-2.391 -5.331,-5.331c0,-2.94 2.392,-5.331 5.331,-5.331c2.939,0 5.331,2.391 5.331,5.331c0,2.939 -2.392,5.331 -5.331,5.331z"></path><path d="M16,12.268c-2.058,0 -3.732,1.674 -3.732,3.732c0,2.058 1.674,3.732 3.732,3.732c2.058,0 3.732,-1.674 3.732,-3.732c0,-2.058 -1.674,-3.732 -3.732,-3.732zM16,18.666c-1.47,0 -2.666,-1.196 -2.666,-2.666c0,-1.47 1.196,-2.666 2.666,-2.666c1.47,0 2.666,1.196 2.666,2.666c0,1.47 -1.196,2.666 -2.666,2.666z"></path></g></g></svg>