<svg width="40" height="12" viewBox="0 0 40 12" fill="none" xmlns="http://www.w3.org/2000/svg">
<path d="M0.71147 11V0.818182H4.27113C4.98041 0.818182 5.5654 0.940814 6.0261 1.18608C6.4868 1.42803 6.82984 1.7545 7.05522 2.16548C7.2806 2.57315 7.39329 3.02557 7.39329 3.52273C7.39329 3.96023 7.3154 4.3215 7.15962 4.60653C7.00716 4.89157 6.80498 5.11695 6.55309 5.28267C6.30451 5.44839 6.03439 5.57102 5.74272 5.65057V5.75C6.05427 5.76989 6.36748 5.87926 6.68235 6.07812C6.99722 6.27699 7.26071 6.56203 7.47283 6.93324C7.68496 7.30445 7.79102 7.75852 7.79102 8.29545C7.79102 8.80587 7.67501 9.26491 7.443 9.67259C7.211 10.0803 6.84476 10.4034 6.34428 10.642C5.84381 10.8807 5.19253 11 4.39045 11H0.71147ZM1.94442 9.90625H4.39045C5.19585 9.90625 5.76758 9.75047 6.10565 9.43892C6.44703 9.12405 6.61772 8.7429 6.61772 8.29545C6.61772 7.95076 6.52989 7.63258 6.35423 7.34091C6.17856 7.04593 5.92833 6.81061 5.60352 6.63494C5.27871 6.45597 4.89424 6.36648 4.45011 6.36648H1.94442V9.90625ZM1.94442 5.29261H4.23136C4.60257 5.29261 4.93732 5.2197 5.23562 5.07386C5.53723 4.92803 5.77586 4.72254 5.95153 4.45739C6.1305 4.19223 6.21999 3.88068 6.21999 3.52273C6.21999 3.07528 6.06422 2.69579 5.75266 2.38423C5.44111 2.06937 4.94727 1.91193 4.27113 1.91193H1.94442V5.29261ZM12.7601 11.1591C12.0707 11.1591 11.4659 10.995 10.9455 10.6669C10.4284 10.3388 10.0241 9.87973 9.73242 9.28977C9.44407 8.69981 9.29989 8.01042 9.29989 7.22159C9.29989 6.42614 9.44407 5.73177 9.73242 5.13849C10.0241 4.54522 10.4284 4.08452 10.9455 3.75639C11.4659 3.42827 12.0707 3.2642 12.7601 3.2642C13.4495 3.2642 14.0527 3.42827 14.5698 3.75639C15.0901 4.08452 15.4945 4.54522 15.7828 5.13849C16.0745 5.73177 16.2203 6.42614 16.2203 7.22159C16.2203 8.01042 16.0745 8.69981 15.7828 9.28977C15.4945 9.87973 15.0901 10.3388 14.5698 10.6669C14.0527 10.995 13.4495 11.1591 12.7601 11.1591ZM12.7601 10.1051C13.2838 10.1051 13.7147 9.97088 14.0527 9.70241C14.3908 9.43395 14.641 9.08097 14.8034 8.64347C14.9659 8.20597 15.0471 7.73201 15.0471 7.22159C15.0471 6.71117 14.9659 6.23556 14.8034 5.79474C14.641 5.35393 14.3908 4.99763 14.0527 4.72585C13.7147 4.45407 13.2838 4.31818 12.7601 4.31818C12.2364 4.31818 11.8056 4.45407 11.4675 4.72585C11.1294 4.99763 10.8792 5.35393 10.7168 5.79474C10.5544 6.23556 10.4732 6.71117 10.4732 7.22159C10.4732 7.73201 10.5544 8.20597 10.7168 8.64347C10.8792 9.08097 11.1294 9.43395 11.4675 9.70241C11.8056 9.97088 12.2364 10.1051 12.7601 10.1051ZM19.1847 9.26989L22.8636 3.36364H24.2159V11H23.0426V5.09375L19.3835 11H18.0114V3.36364H19.1847V9.26989ZM22.0881 0.818182H23.1818C23.1818 1.35511 22.9962 1.79427 22.625 2.13565C22.2538 2.47704 21.75 2.64773 21.1136 2.64773C20.4872 2.64773 19.9884 2.47704 19.6172 2.13565C19.2493 1.79427 19.0653 1.35511 19.0653 0.818182H20.1591C20.1591 1.0767 20.2304 1.30374 20.3729 1.49929C20.5187 1.69484 20.7656 1.79261 21.1136 1.79261C21.4616 1.79261 21.7102 1.69484 21.8594 1.49929C22.0118 1.30374 22.0881 1.0767 22.0881 0.818182ZM25.3258 4.45739V3.36364H31.5304V4.45739H29.0247V11H27.8514V4.45739H25.3258ZM34.4151 9.26989L38.0941 3.36364H39.4464V11H38.2731V5.09375L34.614 11H33.2418V3.36364H34.4151V9.26989Z" fill="#4285F4"/>
</svg>
